<?xml version="1.0" encoding="utf-8"?>
<!-- Generator: Adobe Illustrator 23.0.3, SVG Export Plug-In . SVG Version: 6.00 Build 0)  -->
<svg version="1.1" id="Capa_1" xmlns="http://www.w3.org/2000/svg" xmlns:xlink="http://www.w3.org/1999/xlink" x="0px" y="0px"
	 width="72.54px" height="93px" viewBox="0 0 72.54 93" enable-background="new 0 0 72.54 93" xml:space="preserve">
<g>
	<g id="Watch_38mm_1">
		<g id="icono1" transform="translate(-1.153)">
			<g id="Group_1" transform="translate(24.153)">
				<path id="Path_1" fill="#E08709" d="M33.054,37.526v-18.6C33.054,8.491,23.811,0,12.447,0S-8.162,8.491-8.162,18.928v18.6H-23
					V93h72.54V37.526H33.054z M-4.865,18.926c0-8.638,7.765-15.665,17.311-15.665s17.311,7.028,17.311,15.665v18.6H-4.865
					L-4.865,18.926z M46.247,89.737h-65.948v-6.526h65.948V89.737z M-19.701,79.947V40.79h65.948v39.157H-19.701z"/>
				<path id="Path_2" fill="#E08709" d="M13.27,50.579c-3.62-0.015-6.57,2.903-6.595,6.523v9.791
					c-0.045,3.642,2.871,6.631,6.513,6.676c3.642,0.045,6.631-2.871,6.676-6.513c0.001-0.054,0.001-0.108,0-0.162v-9.791
					c-0.025-3.62-2.975-6.538-6.595-6.523H13.27z M16.57,66.895c0.001,1.823-1.475,3.301-3.298,3.302
					c-1.823,0.001-3.301-1.475-3.302-3.298c0-0.001,0-0.003,0-0.004v-9.793c-0.001-1.823,1.475-3.301,3.298-3.302
					c1.823-0.001,3.301,1.475,3.302,3.298c0,0.001,0,0.003,0,0.004V66.895z"/>
			</g>
		</g>
	</g>
</g>
</svg>
