<?xml version="1.0" encoding="utf-8"?>
<!-- Generator: Adobe Illustrator 23.0.3, SVG Export Plug-In . SVG Version: 6.00 Build 0)  -->
<svg version="1.1" id="Capa_1" xmlns="http://www.w3.org/2000/svg" xmlns:xlink="http://www.w3.org/1999/xlink" x="0px" y="0px"
	 width="236.001px" height="50.046px" viewBox="0 0 236.001 50.046" enable-background="new 0 0 236.001 50.046"
	 xml:space="preserve">
<g>
	<g>
		<path fill="#FFFFFF" d="M23.248,16.945c0,6.905-2.118,14.731-6.261,18.875c-2.026,2.025-4.374,3.084-7.32,3.084
			c-7.089,0-8.148-6.859-8.148-10.266c0-6.491,2.118-14.317,6.445-18.507C9.852,8.291,12.2,7.14,15.192,7.14
			C22.281,7.14,23.248,13.354,23.248,16.945z M12.614,13.907C9.99,16.531,8.517,24.909,8.517,29.513c0,1.336,0.23,3.453,2.164,3.453
			c0.506,0,1.059-0.276,1.52-0.736c2.808-2.809,4.051-12.706,4.051-16.021c0-1.197-0.276-3.131-1.934-3.131
			C13.719,13.078,13.166,13.354,12.614,13.907z"/>
		<path fill="#FFFFFF" d="M29.465,7.968C31.537,7.6,34.207,7.37,36.278,7.37c2.117,0,5.524,0.368,7.642,2.624
			c1.381,1.473,1.979,3.867,1.979,5.478c0,4.696-2.302,8.056-4.373,9.713c-2.21,1.75-5.386,2.578-8.01,2.578
			c-0.369,0-0.783,0-1.197,0l-2.071,10.772h-6.629L29.465,7.968z M33.424,22.193c0.276,0,0.553,0,0.783,0
			c3.959,0,4.88-3.913,4.88-6.261c0-1.795-0.875-3.039-2.67-3.039c-0.506,0-0.967,0-1.243,0.092L33.424,22.193z"/>
		<path fill="#FFFFFF" d="M52.714,13.953h-5.34l1.243-6.445h17.448l-1.243,6.445h-5.294l-4.742,24.583h-6.813L52.714,13.953z"/>
		<path fill="#FFFFFF" d="M75.872,7.508l-5.938,31.028H63.12l5.938-31.028H75.872z"/>
		<path fill="#FFFFFF" d="M94.609,38.536l1.335-9.76c0.322-2.485,0.967-6.215,1.795-10.634h-0.185
			c-1.427,4.419-2.946,8.24-3.775,10.174l-3.959,9.575H84.85l-0.276-9.575c-0.046-1.888-0.23-5.755-0.092-10.174H84.39
			c-0.829,4.419-1.657,8.148-2.256,10.634l-2.348,9.76h-5.801L81.95,7.508h7.182l0.322,13.351c0.046,2.256,0.138,5.893,0.046,8.01
			h0.092c0.506-2.117,1.795-5.708,2.67-8.01l5.156-13.351h7.089l-4.005,31.028H94.609z"/>
		<path fill="#FFFFFF" d="M117.216,7.508l-3.821,19.888c-0.276,1.381-0.415,2.486-0.415,3.314c0,1.427,0.645,2.164,1.841,2.164
			c1.381,0,2.486-0.921,3.315-5.248l3.867-20.118h6.813l-3.637,19.105c-1.427,7.457-4.373,12.291-11.094,12.291
			c-5.617,0-7.826-2.992-7.826-7.642c0-1.381,0.23-3.177,0.599-5.156l3.544-18.599H117.216z"/>
		<path fill="#FFFFFF" d="M147.233,38.536l1.335-9.76c0.322-2.485,0.967-6.215,1.796-10.634h-0.185
			c-1.427,4.419-2.946,8.24-3.774,10.174l-3.959,9.575h-4.972l-0.277-9.575c-0.045-1.888-0.229-5.755-0.092-10.174h-0.092
			c-0.828,4.419-1.657,8.148-2.256,10.634l-2.348,9.76h-5.801l7.965-31.028h7.182l0.322,13.351c0.046,2.256,0.138,5.893,0.046,8.01
			h0.092c0.506-2.117,1.795-5.708,2.67-8.01l5.156-13.351h7.089l-4.005,31.028H147.233z"/>
		<path fill="#FFFFFF" d="M170.449,7.943c1.893-0.383,4.133-0.643,6.652-0.643c3.196,0,5.506,0.646,7.158,2.128
			c1.431,1.166,2.225,2.815,2.225,4.831c0,3.921-3.164,6.827-6.682,7.74v0.123c2.802,0.817,5.114,3.15,5.09,6.887
			c0,3.177-1.683,5.672-3.713,7.185c-2.462,1.846-5.883,2.549-10.045,2.549c-2.664,0-4.979-0.163-6.429-0.44L170.449,7.943z
			 M168.982,35.448c0.969,0.153,2.094,0.201,3.139,0.201c4.521,0.024,8.76-1.867,8.76-6.828c0-3.642-3.074-5.24-6.553-5.24h-3.108
			L168.982,35.448z M171.824,20.677h2.84c4.45,0,7.878-2.307,7.878-6.08c0-2.989-2.255-4.265-5.629-4.265
			c-1.401,0-2.576,0.101-3.172,0.285L171.824,20.677z"/>
		<path fill="#FFFFFF" d="M198.212,7.508l-3.491,18.39c-0.255,1.283-0.385,2.62-0.385,3.889c0.01,3.984,2.317,5.999,5.769,5.999
			c4.236,0,7.328-2.865,8.659-9.839l3.526-18.438h3.817l-3.547,18.553c-1.782,9.274-6.388,12.982-12.981,12.982
			c-5.12,0-9.063-2.778-9.063-9.159c0-1.322,0.147-2.836,0.42-4.268l3.457-18.108H198.212z"/>
		<path fill="#FFFFFF" d="M217.609,33.738c1.687,1.139,4.011,1.981,6.604,1.981c3.491,0.007,6.706-2.086,6.706-5.826
			c0-2.307-1.301-4.022-4.538-5.802c-3.962-2.144-6.175-4.624-6.175-7.958c0-5.553,4.771-9.109,10.476-9.109
			c3.03,0,5.288,0.879,6.355,1.614l-1.354,3.119c-0.976-0.585-2.914-1.478-5.383-1.457c-3.832,0-6.145,2.524-6.153,5.071
			c0,2.518,1.574,3.95,4.818,5.752c3.824,2.046,5.92,4.493,5.92,8.305c0,5.364-4.212,9.591-11.195,9.591
			c-3.104,0-6.166-1.016-7.463-2.155L217.609,33.738z"/>
	</g>
</g>
</svg>
